<svg width="20" height="20" viewBox="0 0 20 20" fill="none" xmlns="http://www.w3.org/2000/svg">
<g clip-path="url(#clip0_1_646)">
<path d="M9.99996 1.87289C5.39579 1.87289 1.66663 5.60414 1.66663 10.2062C1.66663 13.8889 4.05413 17.0118 7.36454 18.1125C7.78121 18.191 7.93399 17.9333 7.93399 17.7118C7.93399 17.5139 7.92704 16.9896 7.92357 16.2951C5.60551 16.7979 5.11663 15.1771 5.11663 15.1771C4.73746 14.2153 4.18954 13.9583 4.18954 13.9583C3.43468 13.4416 4.24788 13.4521 4.24788 13.4521C5.08468 13.5104 5.52426 14.3104 5.52426 14.3104C6.26732 15.5847 7.47496 15.2166 7.95135 15.0034C8.02635 14.4646 8.24093 14.0972 8.47913 13.8889C6.62843 13.6805 4.68329 12.9639 4.68329 9.77081C4.68329 8.86109 5.00621 8.11803 5.54093 7.5347C5.44718 7.32428 5.16593 6.47706 5.61385 5.32914C5.61385 5.32914 6.31176 5.10553 7.90551 6.18331C8.57218 5.99789 9.28051 5.90623 9.98885 5.90206C10.6972 5.90623 11.4055 5.99789 12.0722 6.18331C13.6555 5.10553 14.3534 5.32914 14.3534 5.32914C14.8013 6.47706 14.5201 7.32428 14.4368 7.5347C14.968 8.11803 15.2909 8.86109 15.2909 9.77081C15.2909 12.9722 13.343 13.6771 11.4888 13.8819C11.7805 14.1319 12.0513 14.643 12.0513 15.4236C12.0513 16.5389 12.0409 17.4347 12.0409 17.7055C12.0409 17.9243 12.1868 18.1847 12.6138 18.1014C15.9479 17.0083 18.3333 13.8833 18.3333 10.2062C18.3333 5.60414 14.602 1.87289 9.99996 1.87289Z" fill="#64748B"/>
</g>
<defs>
<clipPath id="clip0_1_646">
<rect width="16.6667" height="16.6667" fill="white" transform="translate(1.66663 1.66667)"/>
</clipPath>
</defs>
</svg>
