<svg width="18" height="18" viewBox="0 0 18 18" fill="none" xmlns="http://www.w3.org/2000/svg">
<path d="M0.5 2C0.5 1.17157 1.17157 0.5 2 0.5H16C16.8284 0.5 17.5 1.17157 17.5 2V16C17.5 16.8284 16.8284 17.5 16 17.5H2C1.17157 17.5 0.5 16.8284 0.5 16V2Z" fill="#F8FAFC"/>
<path d="M0.5 2C0.5 1.17157 1.17157 0.5 2 0.5H16C16.8284 0.5 17.5 1.17157 17.5 2V16C17.5 16.8284 16.8284 17.5 16 17.5H2C1.17157 17.5 0.5 16.8284 0.5 16V2Z" stroke="#F1F5F9"/>
<path d="M10.8231 5.38636L8.47931 14.0938H7.17605L9.5198 5.38636H10.8231Z" fill="#64748B"/>
</svg>
